<?xml version="1.0" encoding="utf-8"?>
<!-- Generator: Adobe Illustrator 17.0.0, SVG Export Plug-In . SVG Version: 6.00 Build 0)  -->
<!DOCTYPE svg PUBLIC "-//W3C//DTD SVG 1.1//EN" "http://www.w3.org/Graphics/SVG/1.1/DTD/svg11.dtd">
<svg version="1.1" xmlns="http://www.w3.org/2000/svg" xmlns:xlink="http://www.w3.org/1999/xlink" x="0px" y="0px" width="500px"
	 height="500px" viewBox="0 0 500 500" enable-background="new 0 0 500 500" xml:space="preserve">
<g id="Layer_1">
	<circle fill="#0E2A39" cx="250" cy="250" r="241"/>
</g>
<g id="Layer_7">
</g>
<g id="People" display="none">
	<g display="inline">
		<g>
			<path fill="#FFFFFF" d="M309.08,226.02c0,0-2.16,6.74-2.508,7.639c-0.335,0.902-2.413,3.693-1.974,3.693
				c0.461,0,5.06,2.143,5.06,2.143l17.881,5.559l-0.268,8.418c-1.559,0.231-7.743,4.322-8.632,6.333
				c-0.604,1.328-1.903,3.704-3.15,5.336c16.279,6.547,25.817,16.182,26.193,26.924c0.259,1.935,10.137,37.195,10.716,45.128h75.239
				c0.065-0.316-2.266-45.945-2.292-46.298c0,0-4.322-11.001-11.164-12.091c-6.854-1.137-15.644-3.527-19.328-6.299
				c-2.151-1.634-9.144-4.469-12.396-5.643c-1.503-0.545-4.112-5.042-4.992-7.057c-0.891-2.011-7.071-6.102-8.643-6.333
				l-0.259-8.418l17.884-5.541c0,0,4.599-2.141,5.036-2.141c0.463,0-2.117-3.399-2.452-4.298c-0.344-0.906-2.013-7.034-2.013-7.034
				s6.018,7.367,9.084,8.752c0,0-6.014-11.293-7.808-17.564c-1.784-6.3-2.969-16.121-2.969-17.023
				c0-0.902-3.702-27.281-5.739-31.649c-2.015-4.385-4.751-10.344-9.441-13.265c-4.703-2.912-11.654-7.071-21.657-7.617
				c-0.134-0.019-0.292-0.019-0.437-0.019s-0.307,0-0.454,0.019c-9.989,0.547-16.939,4.705-21.646,7.617
				c-4.685,2.921-7.427,8.88-9.445,13.265c-2.024,4.368-5.736,30.747-5.736,31.649c0,0.902-1.04,11.12-2.832,17.404
				c-1.808,6.294-7.935,17.183-7.935,17.183C303.069,233.406,309.08,226.02,309.08,226.02z"/>
		</g>
		<g>
			<path fill="#FFFFFF" d="M153.488,299.103v-0.467l0.065-0.465c4.854-21.001,30.176-31.058,44.012-37.08c0.017,0-0.024,0.019,0,0
				c-8.4-3.818-12.826-6.696-14.906-7.159c-0.844-1.702-2.668-14.539-2.668-14.539s10.087-8.926,12.355-25.986
				c0,0,4.964,2.748,5.28-7.643c0.234-7.996,1.613-11.125-3.834-13.451c0,0,0.387-5.538,0.562-10.45
				c0.27-7.287,1.615-17.505-10.989-25.75c-1.794-1.15-11.034-6.299-11.092-6.275c-3.297-1.991-7.488-3.276-7.488-3.276l0.121,3.003
				c-0.21-0.209-0.441-0.445-0.653-0.653c-0.821-0.865-1.301-4.175-1.215-5.481c0.169-2.327,0.169-2.327,0.169-2.327
				c-5.983,4.448-10.091,10.199-10.091,10.199l0.532-5.535c0,0-1.109,1.697-14.766,10.197
				c-13.399,8.392-11.183,20.731-10.809,28.035c0.249,4.913,0.733,8.312,0.733,8.312c-5.455,2.327-2.588,5.671-2.452,13.665
				c0.178,11.081,5.758,9.129,5.758,9.129c2.56,15.064,10.489,24.286,10.489,24.286s-2.249,12.907-3.101,14.539
				c-2.478,0.571-8.173,4.493-20.137,9.468c-17.633,7.343-12.094,3.083-26.442,10.264c-22.684,11.33-18.2,58.635-18.2,58.635h71.464
				L153.488,299.103z"/>
		</g>
		<g>
			<path fill="#FFFFFF" d="M348.244,363.256c0-13.475-15.227-70.499-15.227-70.499c0-8.329-10.971-17.856-32.578-23.397
				c-11.218-2.897-20.619-9.317-20.619-9.317c-1.395-0.802-1.163-8.08-1.163-8.08l-6.969-1.053c0-0.584-0.59-9.317-0.59-9.317
				c8.325-2.792,7.466-19.162,7.466-19.162c5.286,2.9,8.731-10.048,8.731-10.048c6.24-18.011-3.116-16.941-3.116-16.941
				c2.967-13.473,0-33.182,0-33.182c-4.184-36.472-66.856-26.567-59.431-14.651c-18.312-3.376-14.132,38.074-14.132,38.074
				l3.97,10.703c-7.81,5.019-2.387,11.103-2.123,18.093c0.387,10.347,6.749,8.204,6.749,8.204
				c0.387,17.042,8.843,19.287,8.843,19.287c1.602,10.703,0.612,8.898,0.612,8.898l-7.536,0.904
				c0.329,2.709-0.586,7.261-0.586,7.261c-8.891,3.927-10.783,6.208-19.583,10.03c-16.997,7.431-35.491,17.045-38.786,30.008
				c-3.276,12.977-13.032,64.185-13.032,64.185H348.244L348.244,363.256z"/>
		</g>
	</g>
</g>
<g id="Cycle" display="none">
	<g display="inline">
		<path fill="none" d="M254.392,147.655c9.024,2.302,18.085,4.64,27.156,7.007c-1.603-0.46-3.242-0.755-4.863-1.068
			c-1.629-0.35-3.26-0.57-4.918-0.754c-1.666-0.212-3.314-0.35-5.028-0.415c-1.676-0.064-3.388-0.129-5.065-0.064
			c-11.335,0.193-22.164,2.928-32.128,7.708c-9.862,4.742-18.979,11.437-26.751,19.789c-7.791,8.195-14.411,17.975-19.329,28.878
			c-4.945,10.866-8.315,22.791-9.696,35.453c-0.452,4.079-0.848,7.486-1.4,10.304c-0.534,2.846-1.224,5.037-2.209,6.787
			c-0.985,1.712-2.256,2.891-4.006,3.664c-1.723,0.728-3.895,0.995-6.695,0.939c-0.064,0-1.612-0.082-3.988-0.174
			c-2.302-0.037-5.396-0.166-8.481-0.286c-3.047-0.147-6.105-0.211-8.407-0.276c-2.292-0.101-3.84-0.147-3.859-0.147
			c-0.165,0-0.322,0-0.46-0.019c-0.129,0-0.276,0-0.396,0c-0.128,0-0.257-0.037-0.396-0.037c-0.128,0-0.257-0.064-0.359-0.064
			l-30.194-3.094c0.129,0.046,0.23,0.046,0.396,0.046c0.046,0.055,0.23,0.055,0.359,0.055c0.166,0,0.267,0.027,0.433,0.027
			c0.166,0,0.276,0,0.423,0c0.037,0.038,1.584,0.065,3.95,0.139c2.339,0.129,5.433,0.174,8.527,0.322
			c3.196,0.138,6.289,0.221,8.647,0.285c2.357,0.046,3.969,0.148,4.052,0.148c2.827,0.11,5.056-0.212,6.869-1.022
			c1.723-0.737,3.02-1.98,4.042-3.766c1.004-1.796,1.704-4.052,2.275-6.99c0.589-2.947,1.003-6.4,1.446-10.636
			c1.455-13.066,4.881-25.433,9.936-36.631c5.083-11.263,11.787-21.336,19.725-29.882c7.947-8.582,17.238-15.59,27.313-20.535
			c10.193-4.908,21.271-7.772,32.8-8.03c1.694-0.037,3.453-0.037,5.165,0.083c1.741,0.083,3.426,0.175,5.139,0.423
			c1.648,0.166,3.361,0.433,4.991,0.746C251.104,146.881,252.781,147.259,254.392,147.655z"/>
		<path opacity="0.3" fill="#FFFFFF" d="M254.392,147.655l27.156,7.007c-1.603-0.46-3.242-0.755-4.863-1.068
			c-1.629-0.35-3.26-0.57-4.918-0.754c-1.666-0.212-3.314-0.35-5.028-0.415c-1.676-0.064-3.388-0.129-5.065-0.064
			c-11.335,0.193-22.164,2.928-32.128,7.708c-9.862,4.742-18.979,11.437-26.751,19.789c-7.791,8.195-14.411,17.975-19.329,28.878
			c-4.945,10.866-8.315,22.791-9.696,35.453c-0.452,4.079-0.848,7.486-1.4,10.304c-0.534,2.846-1.224,5.037-2.209,6.787
			c-0.985,1.712-2.256,2.891-4.006,3.664c-1.723,0.728-3.895,0.995-6.695,0.939c-0.064,0-1.612-0.082-3.988-0.174
			c-2.302-0.037-5.396-0.166-8.481-0.286c-3.047-0.147-6.105-0.211-8.407-0.276c-2.292-0.101-3.84-0.147-3.859-0.147
			c-0.165,0-0.322,0-0.46-0.019c-0.129,0-0.276,0-0.396,0c-0.128,0-0.257-0.037-0.396-0.037c-0.128,0-0.257-0.064-0.359-0.064
			l-30.194-3.094c0.129,0.046,0.23,0.046,0.396,0.046c0.046,0.055,0.23,0.055,0.359,0.055c0.166,0,0.267,0.027,0.433,0.027
			c0.166,0,0.276,0,0.423,0c0.037,0.038,1.584,0.065,3.95,0.139c2.339,0.129,5.433,0.174,8.527,0.322
			c3.196,0.138,6.289,0.221,8.647,0.285c2.357,0.046,3.969,0.148,4.052,0.148c2.827,0.11,5.056-0.212,6.869-1.022
			c1.723-0.737,3.02-1.98,4.042-3.766c1.004-1.796,1.704-4.052,2.275-6.99c0.589-2.947,1.003-6.4,1.446-10.636
			c1.455-13.066,4.881-25.433,9.936-36.631c5.083-11.263,11.787-21.336,19.725-29.882c7.947-8.582,17.238-15.59,27.313-20.535
			c10.193-4.908,21.271-7.772,32.8-8.03c1.694-0.037,3.453-0.037,5.165,0.083c1.741,0.083,3.426,0.175,5.139,0.423
			c1.648,0.166,3.361,0.433,4.991,0.746C251.104,146.881,252.781,147.259,254.392,147.655"/>
		<path opacity="0.3" fill="#FFFFFF" d="M405.245,249.649c0-0.193,0-0.341,0-0.488c0-1.04,0-2.044,0-3.084c0-0.276,0-0.562,0-0.838
			c0-0.875-0.037-1.731-0.037-2.57c0-0.211,0-0.441-0.009-0.672c0-0.985-0.055-1.989-0.082-3.029
			c-0.038-0.295-0.038-0.525-0.038-0.792c-0.027-0.396-0.027-0.792-0.101-1.188c-0.009-0.396-0.009-0.801-0.064-1.252
			c0-0.276-0.019-0.543-0.019-0.819c-0.073-0.985-0.147-1.943-0.211-2.883c-0.028-0.332-0.065-0.608-0.065-0.838
			c-0.064-0.754-0.129-1.5-0.193-2.302c-0.064-0.332-0.101-0.645-0.12-0.939c-0.129-0.976-0.193-1.943-0.331-2.883
			c0-0.248-0.009-0.46-0.046-0.69c-0.102-0.774-0.23-1.547-0.295-2.376c-0.064-0.294-0.138-0.589-0.166-0.92
			c-0.128-0.958-0.267-1.907-0.433-2.827c-0.23-1.437-0.423-2.8-0.7-4.199c-0.101-0.415-0.138-0.747-0.221-1.142
			c-0.166-1.022-0.359-2.109-0.626-3.132c-0.027-0.359-0.092-0.69-0.23-1.05c-0.249-1.317-0.525-2.67-0.884-3.988
			c-0.037-0.193-0.037-0.46-0.101-0.671c-0.193-0.792-0.423-1.594-0.589-2.386c-0.083-0.313-0.203-0.607-0.23-0.92
			c-0.083-0.166-0.12-0.396-0.166-0.543c-0.083-0.249-0.102-0.415-0.203-0.682c-0.276-1.013-0.543-2.072-0.866-3.094
			c-0.056-0.258-0.166-0.525-0.221-0.82c-0.323-1.298-0.774-2.569-1.179-3.784c-0.083-0.369-0.166-0.645-0.268-0.912
			c-0.331-1.032-0.644-2.025-1.022-3.011c-0.11-0.359-0.193-0.728-0.358-1.068c-0.369-1.169-0.857-2.385-1.308-3.545
			c0-0.027,0-0.092-0.009-0.193c0,0,0,0-0.064,0c-0.452-1.123-0.856-2.274-1.308-3.389c-0.147-0.304-0.23-0.607-0.377-0.893
			c-0.295-0.819-0.654-1.611-1.022-2.404c-0.093-0.184-0.093-0.359-0.166-0.497c-0.129-0.193-0.239-0.387-0.313-0.589
			c-0.295-0.755-0.672-1.547-0.995-2.274c-0.157-0.322-0.331-0.719-0.479-1.087c-0.414-0.791-0.746-1.593-1.16-2.366
			c-0.074-0.231-0.175-0.433-0.295-0.664c0-0.064,0-0.128-0.11-0.193c-0.497-1.059-1.003-2.126-1.621-3.158
			c0-0.083-0.092-0.24-0.092-0.304c-0.498-0.921-1.022-1.87-1.501-2.763c-0.083-0.12-0.101-0.23-0.212-0.295
			c-0.064-0.267-0.23-0.524-0.35-0.773c-0.405-0.682-0.801-1.372-1.197-1.98c-0.203-0.405-0.415-0.791-0.599-1.132
			c-0.423-0.663-0.783-1.316-1.215-1.998c-0.166-0.23-0.249-0.405-0.377-0.636c-0.046-0.138-0.185-0.248-0.268-0.396
			c-0.083-0.165-0.211-0.331-0.248-0.516c-0.193-0.313-0.461-0.635-0.691-1.003c-0.24-0.396-0.488-0.783-0.755-1.179
			c-0.257-0.497-0.635-0.995-0.948-1.538c-0.24-0.276-0.396-0.506-0.599-0.792c-0.019-0.074-0.11-0.174-0.166-0.257
			c-0.359-0.497-0.672-1.004-1.003-1.565c-0.295-0.276-0.506-0.672-0.774-1.022c-0.359-0.543-0.81-1.115-1.187-1.63
			c-0.194-0.248-0.359-0.543-0.507-0.755c-0.037-0.082-0.082-0.082-0.101-0.082c-0.479-0.664-0.939-1.271-1.399-1.879
			c-0.166-0.23-0.276-0.396-0.479-0.644c-1.234-1.63-2.514-3.242-3.831-4.817c-0.165-0.221-0.331-0.396-0.497-0.561
			c-0.488-0.608-0.985-1.234-1.529-1.75c0,0-0.019-0.101-0.083-0.101c-0.203-0.258-0.414-0.488-0.626-0.736
			c-0.423-0.479-0.856-0.977-1.289-1.4c-0.295-0.331-0.589-0.626-0.819-0.92c-0.396-0.442-0.792-0.829-1.215-1.29
			c-0.038-0.064-0.102-0.091-0.166-0.157c-0.23-0.248-0.498-0.543-0.728-0.791c-0.359-0.396-0.792-0.811-1.179-1.188
			c-0.267-0.35-0.598-0.626-0.93-0.939c-0.396-0.415-0.783-0.792-1.179-1.17c-0.101-0.064-0.166-0.128-0.23-0.211
			c-0.203-0.212-0.46-0.442-0.728-0.672c-0.414-0.396-0.819-0.792-1.187-1.161c-0.313-0.294-0.654-0.552-0.967-0.884
			c-0.433-0.332-0.81-0.755-1.233-1.086c-0.083-0.102-0.185-0.166-0.249-0.249c-0.249-0.212-0.516-0.415-0.728-0.608
			c-0.441-0.377-0.801-0.746-1.233-1.104c-0.359-0.276-0.728-0.544-1.022-0.838c-0.276-0.267-0.571-0.46-0.884-0.709
			c-0.138-0.11-0.202-0.212-0.368-0.332c-0.092-0.091-0.258-0.174-0.378-0.257c-0.147-0.147-0.34-0.313-0.607-0.479
			c-0.433-0.396-0.921-0.792-1.418-1.151c-0.323-0.267-0.653-0.497-1.004-0.764c-0.441-0.359-0.939-0.755-1.445-1.086
			c-0.147-0.129-0.35-0.258-0.561-0.424c-0.129-0.128-0.276-0.23-0.461-0.294c-0.479-0.378-0.985-0.765-1.446-1.105
			c-0.35-0.212-0.682-0.479-1.003-0.691c-0.535-0.35-1.087-0.746-1.648-1.086c-0.185-0.12-0.396-0.35-0.627-0.479
			c-0.101-0.018-0.165-0.045-0.248-0.064c-0.58-0.414-1.215-0.838-1.86-1.234c-0.211-0.165-0.424-0.285-0.626-0.433
			c-0.884-0.524-1.749-1.067-2.597-1.593l0,0c-0.055,0-0.074-0.037-0.101-0.037c-0.838-0.488-1.685-0.985-2.542-1.446
			c-0.239-0.148-0.524-0.268-0.783-0.433c-0.598-0.359-1.187-0.691-1.813-0.985c-0.065-0.028-0.166-0.11-0.286-0.129
			c-0.405-0.267-0.866-0.497-1.262-0.727c-0.267-0.065-0.46-0.231-0.773-0.332c-0.709-0.396-1.464-0.755-2.22-1.115
			c0,0-0.018-0.037-0.074-0.037c-0.175-0.101-0.396-0.147-0.57-0.276c-0.608-0.248-1.207-0.543-1.777-0.81
			c-0.304-0.129-0.58-0.295-0.912-0.423c-0.34-0.148-0.653-0.305-0.948-0.415c-0.203-0.064-0.369-0.147-0.534-0.23
			c-0.322-0.12-0.635-0.249-0.967-0.377c-0.516-0.203-0.985-0.433-1.501-0.626c-0.331-0.12-0.626-0.249-0.984-0.396
			c-0.102-0.037-0.295-0.129-0.433-0.193c-0.396-0.12-0.783-0.268-1.151-0.415c-0.258-0.12-0.543-0.211-0.856-0.313
			c-0.802-0.294-1.612-0.561-2.431-0.875l-26.466-9.088c0.037,0,0.037,0,0.037,0.046c0-0.046,0-0.046,0-0.046
			c0.838,0.331,1.677,0.607,2.487,0.939c0.276,0.101,0.525,0.166,0.792,0.276c0.561,0.221,1.114,0.451,1.759,0.626
			c0.276,0.166,0.589,0.304,0.902,0.35c0.543,0.267,1.086,0.497,1.565,0.69c0.35,0.129,0.645,0.295,0.939,0.415
			c0.543,0.249,1.087,0.442,1.612,0.672c0.305,0.166,0.562,0.267,0.856,0.359c0.645,0.331,1.253,0.644,1.916,0.939
			c0.174,0.055,0.359,0.138,0.506,0.248c0.838,0.351,1.629,0.774,2.422,1.17c0.203,0.12,0.423,0.267,0.626,0.313
			c0.589,0.331,1.132,0.589,1.677,0.893c0.607,0.313,1.224,0.653,1.777,1.003c0.369,0.157,0.645,0.313,0.894,0.442
			c0.837,0.497,1.676,0.958,2.468,1.418c0.037,0.092,0.147,0.092,0.203,0.129c0.884,0.561,1.777,1.086,2.661,1.629
			c0.203,0.11,0.451,0.313,0.626,0.442c0.663,0.396,1.298,0.829,1.915,1.206c0.322,0.249,0.635,0.424,0.931,0.636
			c0.553,0.387,1.142,0.709,1.666,1.124c0.332,0.23,0.691,0.46,0.985,0.727c0.516,0.396,0.995,0.736,1.482,1.086
			c0.396,0.249,0.728,0.488,1.087,0.755c0.534,0.332,0.994,0.755,1.455,1.087c0.359,0.331,0.69,0.561,1.086,0.81
			c0.423,0.359,0.884,0.736,1.345,1.132c0.396,0.276,0.69,0.58,1.123,0.893c0.332,0.276,0.755,0.589,1.115,0.949
			c0.396,0.295,0.764,0.663,1.16,0.976c0.378,0.341,0.802,0.672,1.215,1.032c0.35,0.304,0.691,0.617,1.004,0.93
			c0.433,0.359,0.81,0.719,1.206,1.087c0.359,0.304,0.719,0.653,1.068,0.949c0.377,0.396,0.802,0.754,1.169,1.123
			c0.396,0.332,0.654,0.653,1.022,0.967c0.378,0.396,0.783,0.811,1.151,1.17c0.322,0.368,0.653,0.69,0.985,1.022
			c0.423,0.377,0.792,0.81,1.188,1.187c0.313,0.332,0.653,0.691,0.948,1.032c0.396,0.396,0.829,0.848,1.225,1.244
			c0.258,0.322,0.589,0.69,0.884,1.003c0.433,0.442,0.792,0.866,1.187,1.363c0.295,0.332,0.581,0.608,0.875,0.921
			c0.488,0.599,0.903,1.151,1.4,1.712c0.165,0.267,0.396,0.461,0.589,0.709c0.607,0.746,1.27,1.547,1.878,2.256
			c0.037,0.101,0.083,0.147,0.128,0.193c0.627,0.829,1.271,1.685,1.926,2.541c0.202,0.193,0.35,0.488,0.58,0.709
			c0.433,0.636,0.893,1.198,1.353,1.795c0.24,0.359,0.488,0.691,0.672,1.032c0.378,0.498,0.773,1.041,1.206,1.602
			c0.222,0.359,0.488,0.709,0.737,1.097c0.35,0.552,0.709,1.04,1.086,1.565c0.249,0.414,0.479,0.746,0.672,1.105
			c0.369,0.524,0.727,1.067,1.059,1.602c0.23,0.387,0.488,0.819,0.755,1.215c0.331,0.497,0.626,0.985,0.92,1.51
			c0.249,0.369,0.498,0.765,0.746,1.142c0.405,0.672,0.802,1.335,1.133,1.971c0.257,0.433,0.46,0.848,0.69,1.206
			c0.396,0.691,0.792,1.381,1.188,2.091c0.193,0.359,0.359,0.691,0.589,1.004c0.497,0.967,0.985,1.942,1.482,2.882
			c0.037,0.111,0.101,0.249,0.166,0.341c0.561,1.086,1.113,2.173,1.611,3.278c0.203,0.286,0.294,0.608,0.46,0.894
			c0.396,0.801,0.792,1.629,1.086,2.449c0.203,0.369,0.433,0.728,0.599,1.142c0.322,0.719,0.617,1.474,0.985,2.22
			c0.166,0.396,0.332,0.856,0.497,1.215c0.359,0.856,0.691,1.648,1.014,2.458c0.138,0.322,0.267,0.636,0.396,0.967
			c0.46,1.151,0.92,2.321,1.335,3.509c0.055,0.083,0.055,0.083,0.101,0.185c0.442,1.197,0.884,2.431,1.335,3.683
			c0.092,0.396,0.193,0.69,0.34,1.068c0.35,1.04,0.672,2.126,1.041,3.149c0.101,0.332,0.193,0.589,0.294,0.884
			c0.424,1.326,0.838,2.67,1.188,3.969c0.064,0.304,0.129,0.516,0.23,0.746c0.295,1.151,0.608,2.302,0.902,3.389
			c0.148,0.516,0.295,1.067,0.415,1.583c0.101,0.295,0.166,0.562,0.23,0.838c0.257,0.967,0.506,1.943,0.672,2.901
			c0.101,0.212,0.101,0.423,0.184,0.672c0.193,0.792,0.332,1.565,0.488,2.339c0.101,0.331,0.138,0.626,0.203,0.939
			c0.23,0.939,0.423,1.961,0.589,2.91c0.037,0.138,0.074,0.294,0.082,0.451c0.185,0.884,0.35,1.722,0.498,2.597
			c0.046,0.313,0.11,0.608,0.184,0.939c0.157,0.902,0.257,1.842,0.423,2.763c0,0.101,0,0.166,0.046,0.267l0,0
			c0.184,1.041,0.304,2.044,0.433,3.03c0.019,0.313,0.11,0.626,0.11,0.902c0.083,0.875,0.23,1.731,0.305,2.57
			c0.064,0.211,0.11,0.377,0.11,0.607c0.083,1.041,0.211,2.017,0.313,3.066c0,0.276,0.037,0.608,0.083,0.921
			c0.064,0.754,0.128,1.583,0.211,2.449c0,0.249,0,0.479,0.083,0.746c0.083,0.985,0.139,2.044,0.184,3.076
			c0.028,0.286,0.046,0.58,0.046,0.856c0.083,0.811,0.083,1.63,0.166,2.487c0,0.286,0.019,0.562,0.019,0.856
			c0.045,1.059,0.064,2.072,0.11,3.094c0,0.268,0,0.498,0,0.709c0.037,0.912,0.037,1.796,0.037,2.653c0,0.276,0,0.561,0,0.875
			c0,1.067,0,2.155,0,3.177c0,0.165,0,0.313,0,0.46c-0.037,0.958-0.037,1.906-0.083,2.901c0,0.276,0,0.562-0.019,0.856
			c-0.045,1.087-0.064,2.201-0.147,3.288c-1.151,22.625-6.023,44.145-13.895,63.75c-7.864,19.568-18.721,37.101-31.659,51.899
			c-12.892,14.66-27.773,26.576-44.109,35.167c-16.106,8.417-33.39,13.537-51.254,14.752c9.3-0.589,18.583-1.244,27.874-1.87
			c2.201-0.147,4.347-0.331,6.548-0.644c2.173-0.286,4.337-0.562,6.454-0.958c1.087-0.184,2.146-0.34,3.196-0.571
			c11.787-2.421,23.114-6.52,33.925-12.137c11.934-6.178,23.095-14.245,33.288-23.859c3.325-3.196,6.621-6.566,9.742-10.13
			c12.644-14.319,23.187-31.263,30.812-50.066c7.671-18.933,12.432-39.679,13.518-61.513c0.027-1.086,0.092-2.118,0.147-3.158
			c0-0.332,0-0.626,0-0.912C405.199,251.444,405.209,250.523,405.245,249.649z"/>
		<path fill="#FFFFFF" d="M237.669,81.657c19.79-1.049,38.703,2.717,55.979,10.525c17.588,7.856,33.39,19.909,46.613,35.214
			c13.398,15.562,24.117,34.348,31.134,55.518c7.127,21.346,10.506,44.9,9.217,69.681c-1.252,24.835-7.007,48.344-16.299,69.423
			c-9.236,20.986-21.925,39.477-37.082,54.496c-14.9,14.881-32.138,26.327-50.72,33.417c-18.26,7.063-37.81,9.936-57.682,7.91
			c-3.702-0.415-6.943-0.728-9.678-1.271c-2.652-0.506-4.908-1.289-6.603-2.422c-1.712-1.169-2.882-2.781-3.609-5.074
			c-0.737-2.201-0.967-5.13-0.783-8.987c0.046-0.065,0.147-2.073,0.295-5.166c0.193-3.066,0.414-7.182,0.626-11.198
			c0.258-4.079,0.46-8.168,0.654-11.215c0.203-3.012,0.295-5.056,0.295-5.148c0.239-3.924,1.04-6.824,2.311-8.942
			c1.262-2.127,2.993-3.554,5.101-4.429c2.072-0.893,4.392-1.252,6.98-1.372c2.606-0.083,5.304,0.101,8.058,0.286
			c12.192,0.92,24.136-1.188,35.25-5.783c11.225-4.641,21.566-11.87,30.489-21.023c8.987-9.273,16.511-20.498,21.962-33.225
			c5.562-12.744,8.978-26.934,9.761-41.788c0.774-14.9-1.133-29.145-5.285-42.083c-4.106-12.827-10.415-24.338-18.306-33.952
			c-7.919-9.53-17.367-17.128-28.003-22.275c-10.47-5.074-22.036-7.708-34.228-7.459c-11.529,0.258-22.607,3.122-32.8,8.03
			c-10.075,4.945-19.366,11.953-27.313,20.535c-7.938,8.546-14.641,18.619-19.725,29.882c-5.055,11.198-8.481,23.564-9.936,36.631
			c-0.442,4.236-0.856,7.689-1.446,10.636c-0.571,2.938-1.271,5.194-2.275,6.99c-1.022,1.786-2.32,3.029-4.042,3.766
			c-1.813,0.81-4.042,1.132-6.869,1.022c-0.083,0-1.694-0.102-4.052-0.148c-2.357-0.064-5.451-0.147-8.647-0.285
			c-3.094-0.148-6.188-0.193-8.527-0.322c-2.366-0.074-3.913-0.101-3.95-0.139c-3.297-0.128-5.562-0.754-7.182-1.952
			c-1.612-1.206-2.468-2.919-2.892-5.129c-0.396-2.201-0.396-4.936-0.128-8.113c0.294-3.223,0.754-6.934,1.233-11.078
			c2.22-20.682,7.652-40.305,15.553-58.087c7.855-17.883,18.389-34.09,30.794-47.82c12.541-13.924,27.165-25.388,43.169-33.648
			C201.314,87.689,219.059,82.615,237.669,81.657z"/>
	</g>
</g>
<g id="direction" display="none">
	<path id="direction-7-icon" display="inline" fill="#FFFFFF" d="M434.316,210.115l-44.264,95.507l-14.29-35.474
		c-67.048,34.528-87.173,86.663-91.547,168.185l-67.581-0.264c5.28-103.608,33.582-181.606,133.789-230.76l-14.417-35.797
		L434.316,210.115z M216.686,214.294c12.55,10.076,23.729,21.026,33.635,32.89c10.003-11.789,21.286-22.645,33.92-32.626v-84.992
		h38.842l-71.208-78.543l-73.391,78.052l38.204,0.178L216.686,214.294L216.686,214.294z M232.52,271.224
		c-19.512-25.134-46.075-46.75-81.964-64.709l14.708-35.679l-99.581,36.859l44.463,96.816l14.579-35.359
		c38.767,20.353,61.667,46.518,74.791,80.843C206.569,321.468,217.066,295.346,232.52,271.224z"/>
	<path id="direction-10-icon" display="inline" fill="#FFFFFF" d="M973.084,233.368l-51.763-50.077l51.763-49.018h90.083V105.36
		h50.869v28.912h104.315v99.096H973.084z M1063.167,482.177h50.869V381.111h-50.869V482.177L1063.167,482.177z M1190.852,258.277
		H945.585v99.096h245.267l51.763-49.548L1190.852,258.277z"/>
</g>
<g id="twitter" display="none">
	<path display="inline" fill="#FFFFFF" d="M378.574,189.347c-8.897,3.946-18.459,6.613-28.494,7.812
		c10.242-6.14,18.109-15.862,21.813-27.448c-9.586,5.686-20.204,9.814-31.504,12.039c-9.049-9.642-21.943-15.666-36.212-15.666
		c-27.398,0-49.612,22.212-49.612,49.61c0,3.888,0.439,7.675,1.285,11.306c-41.232-2.069-77.788-21.82-102.256-51.836
		c-4.271,7.327-6.717,15.849-6.717,24.941c0,17.212,8.758,32.397,22.07,41.294c-8.132-0.258-15.782-2.49-22.471-6.205
		c-0.005,0.207-0.005,0.414-0.005,0.624c0,24.037,17.101,44.088,39.796,48.647c-4.163,1.134-8.546,1.74-13.07,1.74
		c-3.197,0-6.305-0.312-9.334-0.89c6.313,19.709,24.635,34.054,46.345,34.453c-16.979,13.307-38.37,21.238-61.615,21.238
		c-4.004,0-7.953-0.235-11.835-0.694c21.955,14.077,48.033,22.291,76.05,22.291c91.253,0,141.155-75.597,141.155-141.156
		c0-2.151-0.048-4.29-0.144-6.419C363.513,208.033,371.923,199.296,378.574,189.347z"/>
</g>
<g id="Blog" display="none">
	<g display="inline">
		<path fill="#FFFFFF" d="M322.403,293.229c0,10.576-1.896,19.478-5.685,26.703c-3.792,7.23-9.167,13.088-16.128,17.582
			c-6.966,4.495-15.381,7.758-25.25,9.783c-9.873,2.024-20.978,3.04-33.313,3.04c-10.753,0-20.053-0.264-27.894-0.793
			c-7.845-0.529-13.794-1.236-17.846-2.116c-4.408-0.88-7.626-2.247-9.65-4.098c-2.028-1.851-3.041-5.242-3.041-10.179V166.584
			c0-4.759,0.925-8.151,2.776-10.179c1.851-2.024,4.891-3.392,9.122-4.098c3.524-0.529,9.163-1.099,16.921-1.718
			c7.754-0.616,16.831-0.925,27.232-0.925c11.985,0,22.957,0.925,32.917,2.776c9.957,1.851,18.549,4.891,25.779,9.122
			c7.225,4.23,12.823,9.741,16.789,16.525c3.966,6.787,5.949,15.203,5.949,25.249v5.288c0,8.816-2.028,16.789-6.081,23.928
			c-4.056,7.139-10.138,12.472-18.243,15.996c8.105,3.528,14.409,8.593,18.904,15.202c4.495,6.61,6.742,14.938,6.742,24.985V293.229
			z M285.388,205.309c0-9.208-3.395-15.76-10.179-19.66c-6.787-3.896-18.64-5.845-35.561-5.845c-3.173,0-6.477,0.045-9.915,0.132
			c-3.437,0.091-6.568,0.223-9.386,0.397v53.936h33.578c6.168,0,11.278-0.661,15.335-1.991c4.053-1.33,7.271-3.144,9.651-5.449
			c2.38-2.301,4.052-5.003,5.024-8.101c0.966-3.098,1.454-6.333,1.454-9.7V205.309z M286.446,289.262
			c0-3.701-0.529-7.225-1.586-10.576c-1.058-3.346-2.867-6.3-5.42-8.857c-2.557-2.553-5.908-4.626-10.047-6.213
			c-4.144-1.587-9.299-2.38-15.467-2.38h-33.578v58.166c3.173,0,6.874,0.091,11.104,0.265c4.23,0.178,7.754,0.264,10.576,0.264
			c8.461,0,15.508-0.529,21.152-1.586c5.639-1.058,10.179-2.73,13.616-5.024c3.437-2.289,5.904-5.155,7.403-8.593
			c1.496-3.437,2.247-7.445,2.247-12.03V289.262z"/>
	</g>
</g>
<g id="LinkedIn" display="none">
	<g display="inline">
		<path fill="#FFFFFF" d="M154.003,209.023h42.02v135.139h-42.02V209.023z M175.015,141.838c13.428,0,24.341,10.913,24.341,24.346
			c0,13.448-10.913,24.362-24.341,24.362c-13.464,0-24.346-10.913-24.346-24.362C150.669,152.751,161.552,141.838,175.015,141.838"
			/>
		<path fill="#FFFFFF" d="M222.366,209.023h40.294v18.457h0.574c5.608-10.621,19.312-21.827,39.746-21.827
			c42.501,0,50.352,27.982,50.352,64.384v74.125h-41.953v-65.716c0-15.681-0.307-35.838-21.832-35.838
			c-21.857,0-25.191,17.074-25.191,34.701v66.852h-41.989V209.023z"/>
	</g>
</g>
<g id="Home" display="none">
	<path id="home-4-icon" display="inline" fill="#0E2A39" d="M417.512,268.071v173.957h-124.3V347.49h-93.618v94.538h-124.3V268.071
		H30.806L246.403,52.639L462,268.073h-44.488V268.071z M390.907,72.001h-50.149v40.096l50.149,50.26V72.001z"/>
</g>
<g id="new_window">
	<path id="window-multi-2-icon" fill="#FFFFFF" d="M284.463,224.519v102.456H166.754V224.519H284.463 M311.145,194.651H140.073
		v159.006h171.072V194.651z M166.754,146.343v26.681h166.492v153.952h26.681V146.343H166.754z"/>
</g>
</svg>
